Coordinates
version=1
nRows=15
nColumns=34
inDegrees=no

Units are S.I. units (second, meters, Newtons, ...)
If the header above contains a line with 'inDegrees', this indicates whether rotational values are in degrees (yes) or radians (no).

endheader
time	pelvis_tilt	pelvis_list	pelvis_rotation	pelvis_tx	pelvis_ty	pelvis_tz	hip_flexion_r	hip_adduction_r	hip_rotation_r	knee_angle_r	ankle_angle_r	subtalar_angle_r	mtp_angle_r	hip_flexion_l	hip_adduction_l	hip_rotation_l	knee_angle_l	ankle_angle_l	subtalar_angle_l	mtp_angle_l	lumbar_extension	lumbar_bending	lumbar_rotation	arm_flex_r	arm_add_r	arm_rot_r	elbow_flex_r	pro_sup_r	arm_flex_l	arm_add_l	arm_rot_l	elbow_flex_l	pro_sup_l
0.04	0.230738	0.0610325	0.117542	-0.316598	1.03569	-0.22693	0.235196	-0.0755402	-0.259236	0.0144782	0.200437	0.321583	-0.0907714	-0.460168	0.0299223	-0.251673	0.135268	0.427437	0.406793	-0.098216	-0.500412	0.0205564	-0.128815	-0.343159	-0.104729	-0.221099	0.507387	1.57675	0.288044	-0.298086	-0.112272	1.07217	1.4874
0.05	0.23087	0.055071	0.119596	-0.300962	1.03634	-0.226387	0.230567	-0.0655251	-0.257068	0.0283542	0.197236	0.308685	-0.0908143	-0.471027	0.0165271	-0.262782	0.147961	0.432944	0.418593	-0.0982012	-0.498287	0.02737	-0.130121	-0.350833	-0.103119	-0.225044	0.505048	1.57759	0.286434	-0.303568	-0.115457	1.09393	1.49425
0.06	0.231228	0.0481432	0.121719	-0.285058	1.03719	-0.225725	0.223155	-0.053783	-0.252164	0.0374951	0.186836	0.291268	-0.0908573	-0.48036	0.00160949	-0.272792	0.163502	0.43426	0.427279	-0.0981864	-0.495837	0.0349885	-0.131092	-0.357175	-0.101658	-0.228153	0.502824	1.57861	0.282345	-0.307934	-0.1197	1.11483	1.50064
0.07	0.2318	0.0402654	0.123903	-0.26889	1.03823	-0.224943	0.213023	-0.0403617	-0.244626	0.041982	0.169364	0.269528	-0.0909002	-0.488133	-0.0148028	-0.281671	0.181928	0.431348	0.432782	-0.0981716	-0.49306	0.0433886	-0.131713	-0.362196	-0.100343	-0.230436	0.500729	1.57981	0.275808	-0.311182	-0.124971	1.13485	1.50655
0.08	0.23255	0.0314912	0.12611	-0.252472	1.03947	-0.224041	0.200394	-0.025409	-0.234785	0.0421198	0.14525	0.244081	-0.0909431	-0.49423	-0.0326268	-0.289347	0.203353	0.424095	0.434901	-0.0981568	-0.489949	0.0525005	-0.131934	-0.365923	-0.0991676	-0.231922	0.498815	1.58121	0.266913	-0.313304	-0.131178	1.15393	1.51193
0.09	0.233406	0.0219161	0.128256	-0.235833	1.04088	-0.223023	0.185722	-0.00919994	-0.223296	0.0385813	0.115407	0.216076	-0.0909861	-0.498417	-0.0517123	-0.295719	0.228003	0.41228	0.433291	-0.098142	-0.486501	0.0621952	-0.131642	-0.36841	-0.0981228	-0.232675	0.497191	1.58285	0.25584	-0.31429	-0.138148	1.17195	1.51668
0.1	0.234254	0.0116648	0.130196	-0.21902	1.04244	-0.221889	0.16972	0.00787871	-0.211137	0.0324769	0.0813066	0.187134	-0.091029	-0.50033	-0.071854	-0.3007	0.256222	0.395578	0.427492	-0.0981271	-0.482713	0.0722945	-0.130647	-0.369723	-0.0972015	-0.232793	0.496023	1.58478	0.24287	-0.314126	-0.145624	1.18877	1.52072
0.11	0.234964	0.00086529	0.131747	-0.202101	1.04412	-0.220641	0.153293	0.025386	-0.199496	0.0252882	0.044939	0.159128	-0.091072	-0.499505	-0.0928276	-0.304234	0.288439	0.373574	0.416999	-0.0981123	-0.4786	0.0826062	-0.128698	-0.369938	-0.0964089	-0.232398	0.495523	1.58705	0.228368	-0.312803	-0.15329	1.20421	1.52396
0.12	0.235406	-0.0103804	0.132713	-0.185159	1.04588	-0.219282	0.137412	0.0429052	-0.189592	0.0186751	0.00863231	0.133884	-0.0911149	-0.495431	-0.11443	-0.306298	0.325092	0.345828	0.401343	-0.0980974	-0.474212	0.0929666	-0.125518	-0.369116	-0.0957718	-0.231603	0.495923	1.58967	0.21276	-0.310322	-0.160804	1.21806	1.52635
0.13	0.235474	-0.0220149	0.132933	-0.16829	1.04768	-0.217818	0.122961	0.060117	-0.182439	0.0142033	-0.0252185	0.112875	-0.0911579	-0.487627	-0.136507	-0.306885	0.366534	0.31198	0.380195	-0.0980825	-0.469634	0.103275	-0.120858	-0.367286	-0.0953442	-0.23048	0.497431	1.59263	0.19649	-0.306701	-0.167833	1.23015	1.52785
0.14	0.235102	-0.0340244	0.132318	-0.151591	1.04949	-0.21626	0.110585	0.0768409	-0.178658	0.0130753	-0.0544508	0.0970162	-0.0912008	-0.475701	-0.158957	-0.305978	0.412935	0.271896	0.353468	-0.0980676	-0.46498	0.113505	-0.114553	-0.364439	-0.0952064	-0.229028	0.5002	1.59581	0.179991	-0.301983	-0.174094	1.24031	1.52842
0.15	0.234266	-0.0464134	0.130873	-0.135155	1.05126	-0.214627	0.100606	0.0930286	-0.178393	0.0159525	-0.0773754	0.0866289	-0.0912438	-0.459411	-0.181691	-0.303517	0.464186	0.225843	0.321414	-0.0980527	-0.460381	0.12368	-0.106561	-0.360519	-0.0954561	-0.227163	0.504296	1.59902	0.163644	-0.296238	-0.179368	1.2484	1.52804
0.16	0.232987	-0.059168	0.128708	-0.11906	1.05296	-0.212941	0.0929775	0.108727	-0.181309	0.0228721	-0.092952	0.0814889	-0.0912867	-0.438707	-0.204588	-0.299373	0.519852	0.174661	0.284692	-0.0980378	-0.455967	0.133843	-0.0969965	-0.355434	-0.096194	-0.224724	0.509694	1.60194	0.147763	-0.289563	-0.183521	1.25429	1.5267
0.17	0.231332	-0.0722187	0.126025	-0.103358	1.05459	-0.211233	0.0873106	0.124027	-0.186662	0.0332509	-0.100884	0.0809101	-0.0913297	-0.413742	-0.227437	-0.29335	0.579159	0.119884	0.244392	-0.0980228	-0.451857	0.144011	-0.0861248	-0.349071	-0.0975066	-0.22151	0.516284	1.60424	0.132572	-0.282081	-0.1865	1.25787	1.52437
0.18	0.229405	-0.0854065	0.123091	-0.0880753	1.05612	-0.209538	0.082941	0.138992	-0.19344	0.0460036	-0.101597	0.0838823	-0.0913726	-0.384868	-0.249894	-0.285196	0.641033	0.063763	0.201999	-0.0980078	-0.448149	0.154131	-0.0743393	-0.341317	-0.0994479	-0.217328	0.523899	1.60555	0.118213	-0.273933	-0.188329	1.25903	1.52107
